<?xml version="1.0" encoding="utf-8"?>
<!-- Generator: Adobe Illustrator 18.1.1, SVG Export Plug-In . SVG Version: 6.00 Build 0)  -->
<svg version="1.1" baseProfile="tiny" id="Layer_1" xmlns="http://www.w3.org/2000/svg" xmlns:xlink="http://www.w3.org/1999/xlink"
	 x="0px" y="0px" width="22.5px" height="23px" viewBox="0 0 22.5 23" xml:space="preserve">
<path fill="#FFFFFF" d="M22.3,21.9l-6.4-6.4c1.4-1.7,2.5-3.9,2.5-6.3c0-5.1-4.2-9.2-9.2-9.2C4.1,0,0,4.2,0,9.2
	c0,5.1,4.2,9.2,9.2,9.2c2.1,0,3.9-0.7,5.4-1.8L21,23L22.3,21.9z M1.7,9.1c0-4.2,3.3-7.5,7.5-7.5s7.5,3.3,7.5,7.5s-3.3,7.5-7.5,7.5
	C5,16.6,1.7,13.1,1.7,9.1z"/>
</svg>
