<?xml version="1.0" encoding="utf-8"?>
<!-- Generator: Adobe Illustrator 18.1.1, SVG Export Plug-In . SVG Version: 6.00 Build 0)  -->
<svg version="1.1" baseProfile="tiny" id="Layer_1" xmlns="http://www.w3.org/2000/svg" xmlns:xlink="http://www.w3.org/1999/xlink"
	 x="0px" y="0px" width="22.2px" height="23px" viewBox="-618 403 22.2 23" xml:space="preserve">
<path fill="#FFFFFF" d="M22.7,424.9l-6.5-6.5c1.4-1.7,2.4-3.8,2.4-6.3c0-5-4.1-9.2-9.2-9.2c-5,0-9,4.2-9,9.3c0,5.1,4.1,9.2,9.2,9.2
	c2.1,0,3.8-0.6,5.2-1.9l6.5,6.5L22.7,424.9z M2.2,412.1c0-4.1,3.2-7.5,7.5-7.5c4.2,0,7.5,3.2,7.5,7.5c0,4.3-3.2,7.5-7.5,7.5
	S2.2,416.1,2.2,412.1z"/>
</svg>
