<?xml version="1.0" encoding="utf-8"?>
<!-- Generator: Adobe Illustrator 18.1.1, SVG Export Plug-In . SVG Version: 6.00 Build 0)  -->
<svg version="1.1" id="Layer_1" xmlns="http://www.w3.org/2000/svg" xmlns:xlink="http://www.w3.org/1999/xlink" x="0px" y="0px"
	 viewBox="752 162 17 17.5" enable-background="new 752 162 17 17.5" xml:space="preserve">
<path fill="#FFFFFF" d="M769,178.7l-4.9-4.9c1.1-1.3,1.9-3,1.9-4.8c0-3.9-3.2-7-7-7c-3.9,0-7,3.2-7,7c0,3.9,3.2,7,7,7
	c1.6,0,3-0.5,4.1-1.4l4.9,4.9L769,178.7z M753.3,168.9c0-3.2,2.5-5.7,5.7-5.7s5.7,2.5,5.7,5.7c0,3.2-2.5,5.7-5.7,5.7
	C755.8,174.6,753.3,172,753.3,168.9z"/>
</svg>
